<?xml version="1.0" encoding="utf-8"?>
<!-- Generator: Adobe Illustrator 19.1.0, SVG Export Plug-In . SVG Version: 6.00 Build 0)  -->
<svg version="1.1" xmlns="http://www.w3.org/2000/svg" xmlns:xlink="http://www.w3.org/1999/xlink" x="0px" y="0px"
	 viewBox="0 0 144.8 165" xml:space="preserve">
<style type="text/css">
	.st0{fill:#00A0E9;}
	.st1{fill:#E30984;}
</style>
<g>
	<path class="st0" d="M141.5,45.7c0-1.6-1.2-3.7-2.6-4.5L75.1,4.4c-1.4-0.8-3.8-0.8-5.2,0L6.1,41.2c-1.4,0.8-2.6,2.9-2.6,4.5v73.7
		c0,1.7,1.2,3.7,2.6,4.5l46.8,27c1.4,0.8,2.6,0.1,2.6-1.5V87.7c0-1.7-1.3-3-3-3h-4c-1.7,0-3,1.3-3,3v44.4c0,1.6-1.2,2.3-2.6,1.5
		l-26.8-15.5c-1.4-0.8-2.6-2.8-2.6-4.5V51.5c0-1.6,1.2-3.7,2.6-4.5l53.8-31.1c1.4-0.8,3.8-0.8,5.2,0L128.9,47
		c1.4,0.8,2.6,2.9,2.6,4.5v62.1c0,1.7-1.2,3.7-2.6,4.5l-53.8,31.1c-1.4,0.8-2.6,2.9-2.6,4.5v5.6c0,1.6,1.2,2.3,2.6,1.5l63.8-36.9
		c1.4-0.8,2.6-2.9,2.6-4.5V45.7z"/>
</g>
<g>
	<g>
		<g>
			<path class="st1" d="M75.1,112.2c-1.4,0.8-3.8,0.8-5.2,0L48.1,99.6c-1.4-0.8-2.6-2.8-2.6-4.5V70c0-1.7,1.2-3.7,2.6-4.5l21.8-12.6
				c1.4-0.8,3.8-0.8,5.2,0l21.8,12.6c1.4,0.8,2.6,2.8,2.6,4.5v25.2c0,1.7-1.2,3.7-2.6,4.5L75.1,112.2z M55.5,89.4
				c0,1.7,1.2,3.7,2.6,4.5l11.8,6.8c1.4,0.8,3.8,0.8,5.2,0l11.8-6.8c1.4-0.8,2.6-2.8,2.6-4.5V75.7c0-1.7-1.2-3.7-2.6-4.5l-11.8-6.8
				c-1.4-0.8-3.8-0.8-5.2,0l-11.8,6.8c-1.4,0.8-2.6,2.8-2.6,4.5V89.4z"/>
		</g>
	</g>
</g>
</svg>
